<?xml version="1.0" encoding="utf-8"?>
<!-- Svg Vector Icons : http://www.onlinewebfonts.com/icon -->
<!DOCTYPE svg PUBLIC "-//W3C//DTD SVG 1.1//EN" "http://www.w3.org/Graphics/SVG/1.1/DTD/svg11.dtd">
<svg version="1.1" xmlns="http://www.w3.org/2000/svg" xmlns:xlink="http://www.w3.org/1999/xlink" x="0px" y="0px" viewBox="0 0 256 256" enable-background="new 0 0 256 256" xml:space="preserve">
<metadata> Svg Vector Icons : http://www.onlinewebfonts.com/icon </metadata>
<g><g><g><path fill="#000000" d="M123.7,6.2C75,28.2,12.9,56.8,12.4,57.5c-2,2.7-1,5.8,2.4,7.5c2,1,29.4,13.5,97.8,44.7c7.8,3.5,14.7,6.5,15.3,6.5c0.6,0,7.4-2.9,15.1-6.4c110.4-50.2,100.3-45.5,101.1-47.5c0.7-1.7,0.5-3.4-0.6-4.8c-0.7-0.9-112.9-52.2-115.1-52.6C127.7,4.7,125.8,5.2,123.7,6.2z"/><path fill="#000000" d="M11.4,74.7L10,76v62.8c0,62.1,0,62.8,1,63.8c0.6,0.6,24.9,11.7,54,24.8c39.3,17.6,53.5,23.8,55,23.8c1.5,0,2.2-0.3,3.2-1.4l1.2-1.4v-62.4c0-58.7-0.1-62.5-0.9-63.5C122.3,121,16.4,73.5,14.4,73.5C13.5,73.5,12.3,74.1,11.4,74.7z"/><path fill="#000000" d="M236,75.3c-2.1,1-26.1,11.7-53.2,23.9c-29.6,13.2-49.7,22.5-50.2,23.2c-0.9,1-0.9,4.8-0.9,63.4c0,61.7,0,62.4,1,63.7c1.8,2.3,3.5,2.3,9.4-0.3c23.4-10.1,102.2-45.9,103-46.7c1-1,1-1.6,1-63.8V76l-1.4-1.2C242.6,73.1,240.6,73.2,236,75.3z"/></g></g></g>
</svg>